<?xml version="1.0" encoding="utf-8"?>
<!-- Generator: Adobe Illustrator 19.2.1, SVG Export Plug-In . SVG Version: 6.00 Build 0)  -->
<svg version="1.1" id="layer" xmlns="http://www.w3.org/2000/svg" xmlns:xlink="http://www.w3.org/1999/xlink" x="0px" y="0px"
	 viewBox="0 0 652 652" style="enable-background:new 0 0 652 652;" xml:space="preserve">
<style type="text/css">
	.st0{fill-rule:evenodd;clip-rule:evenodd;fill:#003280;}
</style>
<g>
	<g>
		<path class="st0" d="M468.4,227.8c-18.1-4.9-36.2-9.9-54.5-13.9c-44-9.7-89.5-14.1-134.7-11.3c-30,1.3-59.9,5.8-88.6,14.5
			c-13.5,3.9-26.7,8.7-39.5,14.4c-10.4,4.6-20.5,9.7-30.4,15.6c-17.2,10.2-33.4,22.6-45.9,38.3c-9.2,11-16.4,23.7-20.8,37.4
			c-4.7,13.8-6.3,28.7-5.1,43.2c0.7,11.2,3.2,22.3,6.9,32.9c1.8,5.5,4,10.9,6.9,16c0.1,0.1,0.1,0.2,0.2,0.3
			c-0.1-0.1-0.2-0.3-0.3-0.4c-0.6-0.8-1.3-1.6-1.9-2.5c-2.6-3.5-5-7.2-7.4-10.9c-5.3-8.3-10-17.1-14-26.1
			c-4.3-9.5-7.8-19.5-10.1-29.7c-2.2-9.1-3.4-18.5-3.4-27.9c-0.1-9.9,1.2-19.8,4.2-29.2c3.1-10.4,8.1-20.2,14.5-29
			c7.6-10.6,17.2-19.6,27.7-27.2c9-6.7,18.7-12.3,28.7-17.2c10.2-5.1,20.8-9.4,31.6-13.1c12.4-4.4,25-8,37.8-10.9
			c37-8.6,75.5-11.1,113.5-8.8c35.7,1.6,70.9,7.4,105.7,15.2c28.1,6.1,55.8,13.5,82.8,23.2c0.1,0,0.2,0.1,0.2,0.1l5.9-9.5l17.8,10
			v-21l33.3,0l0,21l17.7-10l16.8,27.2l-18.2,11l18,10.3l-8.8,16.2c15.8,6.9,31.5,13.8,46.9,21.3c8.1,4,16,8.1,24,12.2l-0.5,0.7
			c-7.9-3.9-15.8-7.8-23.9-11.5c-15.7-7.3-31.8-13.7-47.9-20.2l-5,9.3l-18.7-10l0,22.3h-34.2v-22.3l-18.7,10l-15.3-28l18-10.3
			l-18.2-11 M463.7,238.1l19,11.5l-18.9,10.8l13.9,25.5l19.6-10.5v23.3h31.3l0-23.3l19.6,10.5l13.9-25.5L543,249.6l19-11.5
			l-15.3-24.8l-18.6,10.5l0-22l-30.4,0v22.1l-18.7-10.5L463.7,238.1z M558.6,237.2l-12.7-20.5l-20.3,11.4l0-23.8l-25.3,0v23.9
			l-20.4-11.5l-3.4,5.5c10.5,3.5,21,7,31.1,11.6c0.7,0.3,1.4,0.7,2.2,1l0.2,5.4l-37.6-11.2l-5.1,8.3l20.5,12.5l-20.5,11.7l11.5,21
			l21.1-11.3v25H526l0-25l21.1,11.3l2.9-5.3c-4.2-1.5-8.3-3.1-12.5-4.6c-7.4-2.7-14.9-5.3-22.3-7.9l0.2-5.3l36.1,15.2l7.1-13.1
			L538,249.7L558.6,237.2z M510.3,216.9l0.9,29c0.7-0.8,1.4-1.6,2.1-2.5c0.5-0.6,0.9-1.2,1.4-1.9l0.8-24.6c0,0,0,0,0-0.1
			c0-0.2,0-0.4-0.1-0.6c-0.1-0.2-0.1-0.4-0.2-0.6c-0.1-0.2-0.2-0.4-0.4-0.5c-0.2-0.2-0.3-0.3-0.5-0.4c-0.2-0.1-0.4-0.2-0.6-0.3
			c-0.2-0.1-0.4-0.1-0.7-0.1c0,0,0,0-0.1,0h0c0,0,0,0-0.1,0c-0.2,0-0.4,0-0.6,0.1c-0.2,0.1-0.4,0.1-0.6,0.3
			c-0.2,0.1-0.4,0.2-0.5,0.4c-0.2,0.2-0.3,0.3-0.4,0.5c-0.1,0.2-0.2,0.4-0.3,0.6C510.4,216.4,510.3,216.6,510.3,216.9
			C510.3,216.8,510.3,216.9,510.3,216.9z M514.5,251.2c0,0-0.1,0.1-0.1,0.1c-0.7,0.7-1.3,1.5-1.9,2.3c-0.4,0.5-0.7,1-1,1.5l1.1,33.3
			h0.8L514.5,251.2z M519.3,238.9c-0.3-0.8-1-1.4-1.8-1.8c-0.5-0.3-1.1-0.5-1.6-0.7l-0.1,5.2c-0.4,0.6-0.8,1.3-1.2,1.9
			c-0.5,0.7-1,1.4-1.6,2.1c-0.6,0.8-1.3,1.5-2,2.2c-0.8,0.8-1.5,1.7-2.2,2.6c-0.7,0.9-1.4,1.9-1.8,2.9c-0.4,1-0.6,2.1-0.5,3.2
			c0,1.2,0.4,2.4,1,3.4c0.4,0.8,1,1.4,1.6,2.1c0.5,0.5,1,0.9,1.6,1.3l-0.1-5.2c0-0.1-0.1-0.2-0.1-0.4c-0.1-0.4-0.2-0.8-0.3-1.2
			c-0.1-0.7,0.2-1.4,0.6-2c0.5-0.9,1.1-1.6,1.7-2.3c1.4-1.6,2.8-3.2,4.1-4.9c0.7-0.8,1.4-1.7,1.9-2.6c0.5-0.8,0.8-1.7,1-2.6
			C519.7,240.9,519.8,239.8,519.3,238.9z M372.6,415.9h10.5l10.9-30.3h55.2l11.6,30.3h29.6L436.4,289h-28.2l-44.5,105.9l-69.4-162.5
			h-40.8l-68.7,163.7l-26.2-61.3h-18l-34,81h18l7-19.4h35.3l7.4,19.4h2.2h16.7h24.1l15.8-43.9h79.8l16.8,43.9h25.1H372.6z
			 M402.7,363.1l18.7-48.5l19.2,48.5H402.7z M137,382.2l12-31l12.3,31H137z M245.6,339.6l27-70.1l27.8,70.1H245.6z M122.5,440h-6
			l-10.1,26.5h5.9l2.1-5.9h9.8l2.1,5.9h6.1L122.5,440z M123,456.3l-1.7-4.7c-0.3-0.8-0.6-1.6-0.8-2.3c-0.2-0.6-0.4-1.3-0.6-1.9
			c-0.1-0.5-0.3-1-0.4-1.5c-0.1,0.5-0.3,1-0.5,1.6c-0.2,0.6-0.4,1.3-0.6,1.9c-0.3,0.8-0.5,1.5-0.8,2.3l-1.7,4.7H123z M140.2,440.1
			H135v26.4h5.2V440.1z M149.9,447.3h-5v25.9h5.2v-9.1c0.1,0.1,0.2,0.3,0.3,0.4c0.2,0.2,0.4,0.4,0.6,0.6c0.3,0.3,0.6,0.5,1,0.8
			c0.5,0.3,1.1,0.6,1.7,0.8c0.8,0.2,1.6,0.3,2.5,0.3c1.1,0,2.2-0.2,3.2-0.7c1.1-0.5,2.1-1.3,2.9-2.3c0.7-0.9,1.2-2,1.6-3.1
			c0.4-1.2,0.5-2.5,0.5-3.8c0-1.4-0.1-2.8-0.6-4.1c-0.4-1.2-0.9-2.4-1.8-3.3c-0.7-0.9-1.7-1.6-2.7-2.1c-1.1-0.5-2.2-0.7-3.4-0.7
			c-0.9,0-1.7,0.1-2.5,0.4c-0.6,0.2-1.1,0.4-1.6,0.7c-0.3,0.2-0.6,0.4-0.9,0.7c-0.2,0.2-0.4,0.4-0.6,0.6c-0.1,0.2-0.2,0.3-0.4,0.5
			V447.3z M154.5,451.1c-0.7,0-1.3,0.1-1.9,0.4c-0.6,0.2-1.1,0.7-1.5,1.1c-0.5,0.5-0.7,1.2-0.9,1.9c-0.2,0.8-0.3,1.6-0.3,2.5
			c0,0.9,0.1,1.8,0.3,2.6c0.2,0.7,0.5,1.3,0.9,1.8c0.4,0.5,0.9,0.9,1.5,1.2c0.6,0.2,1.2,0.4,1.8,0.4c0.6,0,1.2-0.1,1.8-0.4
			c0.6-0.3,1.1-0.6,1.5-1.1c0.4-0.5,0.7-1.2,0.9-1.9c0.2-0.8,0.3-1.7,0.3-2.6c0-0.8-0.1-1.7-0.3-2.5c-0.2-0.7-0.5-1.3-0.9-1.9
			c-0.4-0.5-0.9-0.9-1.5-1.1C155.8,451.2,155.1,451.1,154.5,451.1z M173.3,440.1h-5.2v4.5h5.2V440.1z M173.3,447.3h-5.2v19.1h5.2
			V447.3z M183,447.3h-5v19.1h5.2v-9.9c0-0.6,0-1.3,0.1-1.9c0.1-0.5,0.2-1,0.4-1.5c0.3-0.6,0.8-1.1,1.3-1.5c0.6-0.4,1.4-0.6,2.2-0.6
			c0.7,0,1.4,0.1,2,0.5c0.5,0.3,0.8,0.7,1,1.2c0.2,0.5,0.3,1,0.3,1.6c0,0.4,0,0.8,0,1.1v11h5.2v-12c0-0.7,0-1.3-0.1-2
			c-0.1-1-0.4-2.1-0.9-3c-0.6-0.9-1.5-1.7-2.6-2.1c-1-0.5-2.1-0.6-3.3-0.5c-1,0-1.9,0.2-2.9,0.6c-0.5,0.2-1,0.5-1.5,0.8
			c-0.4,0.3-0.7,0.6-1,1c-0.2,0.3-0.4,0.5-0.6,0.8V447.3z M218.1,460.5h-5c-0.1,0.1-0.1,0.2-0.2,0.4c-0.2,0.4-0.4,0.7-0.7,1.1
			c-0.3,0.4-0.8,0.7-1.3,0.9c-0.6,0.3-1.3,0.3-2,0.3c-0.7,0-1.4-0.1-2-0.5c-0.7-0.3-1.2-0.9-1.6-1.6c-0.2-0.4-0.4-0.9-0.5-1.4
			c-0.1-0.4-0.1-0.8-0.2-1.2c0-0.1,0-0.3,0-0.4h13.7c0-0.3,0-0.5,0-0.8c0-1.3-0.1-2.6-0.5-3.9c-0.3-1.3-0.9-2.5-1.8-3.5
			c-0.8-1.1-1.9-1.9-3.2-2.5c-1.2-0.6-2.6-0.8-3.9-0.8c-1.3,0-2.6,0.2-3.9,0.7c-1.3,0.5-2.4,1.4-3.3,2.4c-0.9,0.9-1.5,2.1-1.9,3.3
			c-0.4,1.2-0.6,2.4-0.6,3.7c0,1.4,0.2,2.9,0.7,4.2c0.4,1.2,1.1,2.3,2,3.2c1,1,2.2,1.7,3.5,2.2c1.1,0.4,2.3,0.5,3.5,0.5
			c1.3,0,2.5-0.2,3.7-0.6c1.2-0.4,2.3-1.1,3.1-2.1c0.6-0.6,1.1-1.3,1.4-2c0.2-0.4,0.4-0.9,0.6-1.3C218,460.8,218,460.7,218.1,460.5z
			 M213,454.9c0-0.2,0-0.3-0.1-0.5c-0.1-0.6-0.3-1.3-0.6-1.8c-0.4-0.7-1-1.2-1.7-1.6c-0.6-0.3-1.2-0.4-1.8-0.4c-0.7,0-1.4,0.1-2,0.5
			c-0.6,0.3-1.1,0.8-1.5,1.4c-0.4,0.6-0.6,1.3-0.7,2c0,0.2-0.1,0.3-0.1,0.5H213z M245.4,440h-6l-10.1,26.5h5.9l2.1-5.9h9.8l2.1,5.9
			h6.1L245.4,440z M245.9,456.3l-1.7-4.7c-0.3-0.8-0.6-1.6-0.8-2.3c-0.2-0.6-0.4-1.3-0.6-1.9c-0.1-0.5-0.3-1-0.4-1.5
			c-0.1,0.5-0.3,1-0.5,1.6c-0.2,0.6-0.4,1.3-0.6,1.9c-0.3,0.8-0.5,1.5-0.8,2.3l-1.7,4.7H245.9z M263.1,440.1h-5.2v4.5h5.2V440.1z
			 M263.1,447.3h-5.2v19.1h5.2V447.3z M280.2,447c-0.2,0-0.3,0-0.4-0.1c-0.6-0.1-1.2,0-1.8,0.1c-0.7,0.1-1.4,0.3-2,0.6
			c-0.6,0.3-1.1,0.6-1.5,1c-0.4,0.4-0.8,0.8-1.1,1.3c-0.2,0.3-0.3,0.6-0.5,0.9v-3.5h-5v19.1h5.2v-8c0-0.6,0-1.2,0.1-1.8
			c0-0.6,0.1-1.2,0.3-1.8c0.2-0.8,0.7-1.5,1.3-2.1c0.6-0.5,1.3-0.9,2.1-1.1c0.5-0.1,1.1-0.2,1.6-0.1c0.4,0,0.8,0.1,1.1,0.1
			c0.2,0,0.4,0.1,0.6,0.1V447z M306.1,440h-6L290,466.5h5.9l2.1-5.9h9.8l2.1,5.9h6L306.1,440z M306.5,456.3l-1.7-4.7
			c-0.3-0.8-0.5-1.6-0.8-2.3c-0.2-0.6-0.4-1.3-0.6-1.9c-0.1-0.5-0.3-1-0.4-1.5c-0.1,0.5-0.3,1-0.5,1.6c-0.2,0.6-0.4,1.3-0.6,1.9
			c-0.3,0.8-0.5,1.5-0.8,2.3l-1.7,4.7H306.5z M323.5,447.3h-5v19.1h5.2v-10.4c0-0.3,0-0.7,0-1c0-0.5,0.1-0.9,0.2-1.4
			c0.1-0.5,0.4-1,0.7-1.4c0.3-0.4,0.7-0.7,1.2-0.9c0.5-0.2,1-0.3,1.5-0.4c0.5,0,1,0,1.5,0.2c0.5,0.2,1,0.6,1.2,1
			c0.2,0.4,0.3,0.8,0.4,1.3c0,0.4,0.1,0.8,0.1,1.2v11.7h5.2v-10.4c0-0.4,0-0.8,0-1.2c0-0.4,0.1-0.9,0.2-1.3c0.1-0.5,0.4-1,0.7-1.4
			c0.3-0.4,0.8-0.7,1.2-0.9c0.5-0.2,0.9-0.3,1.4-0.3c0.5,0,1,0.1,1.4,0.2c0.4,0.2,0.8,0.4,1.1,0.8c0.2,0.3,0.4,0.6,0.5,1
			c0.1,0.3,0.1,0.7,0.1,1.1c0,0.3,0,0.6,0,0.9v11.4h5.2v-12.9c0-0.5,0-1-0.1-1.5c-0.1-1-0.4-2-1-2.8c-0.6-0.9-1.5-1.6-2.5-2
			c-0.9-0.4-1.9-0.6-2.9-0.5c-1,0-1.9,0.2-2.8,0.5c-0.6,0.2-1.1,0.5-1.6,0.9c-0.5,0.3-0.9,0.7-1.2,1.1c-0.2,0.2-0.3,0.4-0.5,0.7
			c-0.1-0.2-0.2-0.5-0.4-0.7c-0.3-0.5-0.7-1-1.2-1.3c-0.5-0.4-1.1-0.7-1.8-0.9c-0.7-0.2-1.4-0.3-2.1-0.3c-0.7,0-1.5,0.1-2.2,0.3
			c-0.6,0.2-1.2,0.5-1.8,0.8c-0.5,0.3-1,0.8-1.4,1.2c-0.2,0.2-0.4,0.5-0.6,0.7V447.3z M357.5,440.1h-5.2v26.4h5l0-2.4
			c0.1,0.2,0.3,0.4,0.4,0.6c0.2,0.2,0.3,0.4,0.5,0.6c0.3,0.3,0.7,0.6,1.1,0.8c0.5,0.3,1.1,0.5,1.7,0.7c0.7,0.2,1.4,0.3,2.2,0.3
			c1.3,0,2.7-0.3,3.9-1c1.1-0.6,2-1.4,2.7-2.4c0.7-1,1.3-2.2,1.6-3.4c0.3-1.2,0.4-2.4,0.4-3.6c0-1.4-0.2-2.7-0.6-4
			c-0.3-1.1-0.9-2.1-1.6-3c-0.7-0.9-1.6-1.6-2.6-2c-0.9-0.5-1.9-0.7-2.9-0.8c-0.7,0-1.4,0-2.1,0.1c-0.6,0.1-1.1,0.3-1.6,0.5
			c-0.5,0.2-1,0.5-1.4,0.9c-0.3,0.2-0.6,0.5-0.9,0.8c-0.2,0.2-0.3,0.4-0.5,0.6V440.1z M361.9,450.9c-0.6,0-1.3,0.1-1.9,0.4
			c-0.6,0.3-1.1,0.7-1.5,1.2c-0.4,0.5-0.7,1.1-0.9,1.7c-0.3,0.8-0.3,1.7-0.4,2.5c0,0.7,0.1,1.5,0.2,2.2c0.2,0.7,0.4,1.3,0.8,1.9
			c0.4,0.6,0.9,1.1,1.5,1.4c0.6,0.3,1.3,0.5,2,0.5c0.8,0,1.5-0.1,2.2-0.5c0.6-0.3,1.1-0.8,1.4-1.4c0.4-0.6,0.6-1.2,0.8-1.9
			c0.2-0.7,0.3-1.4,0.2-2.2c0-1-0.1-1.9-0.5-2.8c-0.2-0.6-0.5-1.1-0.9-1.6c-0.4-0.5-0.9-0.9-1.5-1.1
			C363.1,451,362.5,450.9,361.9,450.9z M393.2,447.3H388v9.5c0,0.5,0,1,0,1.5c0,0.6-0.1,1.2-0.3,1.7c-0.2,0.5-0.4,0.9-0.7,1.3
			c-0.3,0.4-0.8,0.8-1.3,1c-0.5,0.3-1.2,0.4-1.8,0.4c-0.6,0-1.3-0.1-1.9-0.4c-0.5-0.3-1-0.8-1.2-1.4c-0.2-0.5-0.2-1.1-0.3-1.7
			c0-0.5,0-0.9,0-1.3v-10.6h-5.2v12.1c0,0.7,0,1.5,0.1,2.2c0.1,0.8,0.3,1.6,0.7,2.3c0.3,0.6,0.8,1.2,1.4,1.7c0.6,0.4,1.2,0.8,1.9,1
			c0.8,0.3,1.6,0.4,2.5,0.4c0.9,0,1.8-0.1,2.7-0.4c0.7-0.2,1.4-0.6,2-1.1c0.5-0.3,0.9-0.7,1.2-1.2c0.1-0.2,0.3-0.3,0.4-0.5v2.7h5
			V447.3z M403.2,440.1h-5.2v26.4h5.2V440.1z M425.2,466.5c0-0.1-0.1-0.2-0.1-0.3c-0.1-0.3-0.2-0.5-0.2-0.8
			c-0.1-0.3-0.1-0.6-0.2-0.9c-0.1-0.4-0.1-0.8-0.1-1.2c0-0.5,0-1-0.1-1.5c0-0.6,0-1.3,0-1.9c0-0.9,0-1.7,0-2.6c0-0.9,0-1.8,0.1-2.8
			c0-0.7,0-1.5,0-2.2c0-0.7-0.1-1.4-0.4-2c-0.3-0.6-0.7-1.2-1.3-1.7c-0.6-0.5-1.3-0.9-2-1.1c-0.8-0.3-1.6-0.5-2.5-0.6
			c-0.8-0.1-1.6-0.2-2.4-0.2c-0.7,0-1.4,0.1-2.1,0.1c-0.7,0.1-1.4,0.2-2.1,0.5c-0.6,0.2-1.2,0.4-1.7,0.8c-0.5,0.3-1,0.7-1.4,1.2
			c-0.4,0.4-0.7,0.9-0.9,1.4c-0.3,0.5-0.4,1.1-0.5,1.7c0,0.2,0,0.5-0.1,0.7h5c0-0.2,0.1-0.4,0.1-0.6c0.1-0.3,0.2-0.7,0.4-1
			c0.2-0.3,0.5-0.6,0.8-0.8c0.4-0.2,0.8-0.4,1.3-0.4c0.4-0.1,0.7-0.1,1.1-0.1c0.3,0,0.7,0,1,0.1c0.3,0,0.6,0.1,1,0.2
			c0.3,0.1,0.7,0.3,0.9,0.5c0.2,0.2,0.4,0.5,0.5,0.7c0.1,0.2,0.1,0.5,0.2,0.7c0,0.2,0,0.5,0,0.7c0,0.2-0.1,0.3-0.1,0.5
			c-0.1,0.1-0.2,0.3-0.3,0.4c-0.1,0.1-0.3,0.2-0.5,0.3c-0.3,0.1-0.6,0.2-0.9,0.3c-0.5,0.1-0.9,0.2-1.4,0.2c-0.5,0.1-1,0.1-1.5,0.2
			c-0.6,0.1-1.3,0.2-1.9,0.3c-0.7,0.1-1.5,0.2-2.2,0.5c-0.7,0.2-1.4,0.5-2,0.9c-0.7,0.5-1.3,1.1-1.6,1.8c-0.4,0.8-0.6,1.7-0.6,2.6
			c0,0.9,0.2,1.8,0.5,2.5c0.3,0.7,0.8,1.4,1.4,1.8c0.6,0.5,1.3,0.8,2.1,1c0.8,0.2,1.7,0.3,2.5,0.3c0.9,0,1.9-0.1,2.8-0.3
			c0.7-0.2,1.4-0.5,2.1-0.8c0.4-0.2,0.8-0.5,1.1-0.8c0.2-0.1,0.3-0.3,0.5-0.4c0,0.1,0,0.3,0,0.4c0,0.3,0.1,0.6,0.2,0.9
			c0.1,0.2,0.1,0.4,0.2,0.6H425.2z M419.5,457.2c-0.2,0.1-0.3,0.2-0.5,0.3c-0.2,0.1-0.4,0.2-0.6,0.2c-0.4,0.1-0.7,0.2-1.1,0.3
			c-0.5,0.1-1,0.1-1.4,0.2c-0.5,0.1-0.9,0.1-1.4,0.2c-0.5,0.1-0.9,0.2-1.3,0.5c-0.4,0.2-0.7,0.5-0.9,0.9c-0.2,0.4-0.3,0.8-0.3,1.3
			c0,0.3,0,0.6,0.2,0.9c0.1,0.4,0.4,0.8,0.7,1c0.3,0.2,0.7,0.4,1,0.5c0.4,0.1,0.8,0.1,1.2,0.1c0.4,0,0.9-0.1,1.3-0.2
			c0.4-0.1,0.8-0.3,1.1-0.5c0.4-0.2,0.8-0.6,1.1-0.9c0.3-0.3,0.5-0.6,0.6-1c0.1-0.3,0.2-0.6,0.2-0.9c0-0.3,0-0.6,0.1-0.9V457.2z
			 M433.9,447.3h-5v19.1h5.2v-9.9c0-0.6,0-1.3,0.1-1.9c0.1-0.5,0.2-1,0.4-1.5c0.3-0.6,0.8-1.1,1.4-1.5c0.6-0.4,1.4-0.6,2.2-0.6
			c0.7,0,1.4,0.1,2,0.5c0.5,0.3,0.8,0.7,1,1.2c0.2,0.5,0.3,1,0.3,1.6c0,0.4,0,0.8,0,1.1v11h5.2v-12c0-0.7,0-1.3-0.1-2
			c-0.1-1-0.4-2.1-0.9-3c-0.6-0.9-1.5-1.7-2.6-2.1c-1-0.5-2.1-0.6-3.3-0.5c-1,0-2,0.2-2.9,0.6c-0.5,0.2-1,0.5-1.5,0.8
			c-0.4,0.3-0.7,0.6-1,1c-0.2,0.3-0.5,0.5-0.7,0.8V447.3z M469.1,459.1H464c0,0.1,0,0.3-0.1,0.4c-0.1,0.4-0.2,0.8-0.4,1.2
			c-0.2,0.4-0.4,0.8-0.7,1.1c-0.3,0.4-0.8,0.7-1.3,0.9c-0.5,0.2-1.1,0.3-1.7,0.3c-0.6,0-1.2-0.1-1.7-0.3c-0.5-0.2-1-0.6-1.3-1
			c-0.4-0.4-0.6-0.9-0.8-1.4c-0.2-0.5-0.3-1.1-0.4-1.7c-0.1-0.6-0.1-1.2-0.1-1.9c0-0.6,0.1-1.2,0.2-1.8c0.1-0.5,0.3-1.1,0.5-1.6
			c0.2-0.4,0.4-0.8,0.8-1.2c0.3-0.4,0.8-0.7,1.3-0.9c0.5-0.3,1.1-0.4,1.7-0.4c0.6,0,1.1,0.1,1.7,0.3c0.5,0.2,1,0.5,1.4,1
			c0.4,0.4,0.7,1,0.8,1.6c0,0.2,0.1,0.3,0.1,0.5h5.1c0-0.2,0-0.4-0.1-0.6c-0.1-0.9-0.4-1.8-0.9-2.6c-0.5-0.9-1.2-1.7-2-2.3
			c-0.8-0.6-1.8-1.1-2.8-1.3c-1-0.3-2.1-0.4-3.2-0.4c-1.1,0-2.1,0.1-3.2,0.4c-1,0.3-1.9,0.7-2.7,1.3c-0.8,0.6-1.4,1.2-2,2
			c-0.6,0.9-1.1,1.9-1.4,2.9c-0.3,1-0.5,2.1-0.5,3.2c0,1,0,2,0.2,2.9c0.2,1.1,0.6,2.2,1.3,3.1c0.6,0.9,1.3,1.8,2.2,2.4
			c0.8,0.6,1.8,1.1,2.8,1.4c1,0.3,2.2,0.4,3.3,0.4c1,0,2-0.1,3-0.3c0.9-0.2,1.7-0.6,2.5-1.1c0.7-0.5,1.3-1,1.8-1.6
			c0.5-0.6,1-1.4,1.3-2.1c0.3-0.6,0.5-1.3,0.6-2C469.1,459.6,469.1,459.4,469.1,459.1z M490.1,460.5h-5c-0.1,0.1-0.1,0.2-0.2,0.4
			c-0.2,0.4-0.4,0.7-0.7,1.1c-0.3,0.4-0.8,0.7-1.3,0.9c-0.6,0.3-1.3,0.3-2,0.3c-0.7,0-1.4-0.1-2-0.5c-0.7-0.3-1.2-0.9-1.6-1.6
			c-0.2-0.4-0.4-0.9-0.5-1.4c-0.1-0.4-0.1-0.8-0.2-1.2c0-0.1,0-0.3,0-0.4h13.7c0-0.3,0-0.5,0-0.8c0-1.3-0.2-2.6-0.5-3.9
			c-0.3-1.3-0.9-2.5-1.8-3.5c-0.8-1.1-1.9-1.9-3.2-2.5c-1.2-0.6-2.6-0.8-3.9-0.8c-1.3,0-2.7,0.2-3.9,0.7c-1.3,0.5-2.4,1.4-3.3,2.4
			c-0.8,0.9-1.5,2.1-1.9,3.3c-0.4,1.2-0.6,2.4-0.6,3.7c0,1.4,0.2,2.9,0.7,4.2c0.4,1.2,1.1,2.3,2,3.2c1,1,2.2,1.7,3.5,2.2
			c1.1,0.4,2.3,0.5,3.5,0.5c1.3,0,2.5-0.2,3.7-0.6c1.2-0.4,2.3-1.1,3.1-2.1c0.6-0.6,1.1-1.3,1.5-2c0.2-0.4,0.4-0.9,0.6-1.3
			C490,460.8,490,460.7,490.1,460.5z M485,454.9c0-0.2,0-0.3-0.1-0.5c-0.1-0.6-0.3-1.3-0.6-1.8c-0.4-0.7-1-1.2-1.7-1.6
			c-0.6-0.3-1.2-0.4-1.8-0.4c-0.7,0-1.4,0.1-2,0.5c-0.6,0.3-1.1,0.8-1.5,1.4c-0.4,0.6-0.6,1.3-0.7,2c0,0.2-0.1,0.3-0.1,0.5H485z"/>
	</g>
</g>
</svg>
