<?xml version="1.0" encoding="utf-8"?>
<!-- Generator: Adobe Illustrator 16.0.0, SVG Export Plug-In . SVG Version: 6.00 Build 0)  -->
<!DOCTYPE svg PUBLIC "-//W3C//DTD SVG 1.1//EN" "http://www.w3.org/Graphics/SVG/1.1/DTD/svg11.dtd">
<svg version="1.1" id="Ebene_1" xmlns="http://www.w3.org/2000/svg" xmlns:xlink="http://www.w3.org/1999/xlink" x="0px" y="0px"
	 width="130px" height="54.526px" viewBox="-54.767 -16.824 130 54.526" enable-background="new -54.767 -16.824 130 54.526"
	 xml:space="preserve">
<path fill="currentColor" id="Logotype" d="M-5.128,0.568l-0.825,1.841l0,0c-0.571-1.523-2.095-2.222-4.253-2.222c-4.761,0-7.681,2.412-9.014,6.221
	c-1.27,3.428,0.127,6.665,4.253,6.729c1.968,0,4.316-0.444,5.776-1.904h0.063l-0.508,1.333c-0.762,1.904-1.714,3.364-4.316,3.364
	c-0.635,0-1.079-0.063-1.396-0.317c-0.698-0.508-0.444-1.396-0.444-1.396l-5.649,0.19c0,0-0.381,0.952,0.19,2.158
	c0.444,0.889,1.714,2.222,6.284,2.222c2.412,0,5.332-0.444,7.363-1.777c2.285-1.587,3.237-2.983,4.126-5.205L0.585,0.632h-5.713
	V0.568z M-7.54,6.662c-0.571,1.65-1.841,3.682-4.253,3.682s-2.412-2.031-1.714-3.682c0.635-1.587,1.968-3.555,4.316-3.555
	C-6.715,3.044-6.969,5.075-7.54,6.662z M-28.297,0.188c-4.888,0-9.141,2.095-10.728,6.475c-1.841,5.142,0.889,7.3,6.094,7.3
	c1.777,0,3.745-0.317,5.396-1.016c1.587-0.698,3.047-1.65,3.872-3.174c0.063-0.063,0.063-0.127,0.127-0.127l-5.269-0.317
	c-0.571,1.206-1.65,1.904-3.491,1.841c-2.222-0.063-2.158-1.714-1.65-3.174h11.108C-21.061,3.615-22.394,0.188-28.297,0.188z
	 M-27.472,5.456h-5.459c0.698-1.65,1.65-2.729,3.745-2.729c0.952-0.063,1.46,0.254,1.714,0.825
	C-27.154,4.06-27.154,4.758-27.472,5.456z M-40.104,0.188c-2.031,0.19-3.555,0.889-4.761,2.666h-0.063l0.762-2.285h-5.84
	l-4.761,13.013h5.903l1.841-4.951c0.762-2.539,2.222-4.126,5.269-4.126c0.254,0,1.206,0.063,1.523,0.127l1.904-4.443
	C-39.024,0.188-40.104,0.188-40.104,0.188z M12.772,0.188c-1.714,0-3.745,0.127-5.586,0.698c-3.11,1.016-3.745,3.428-3.745,3.428
	L8.837,4.44c0.254-0.952,1.079-1.904,2.603-1.904c2.349-0.127,1.396,1.777,1.016,2.666h-1.841c-5.078,0-8.696,0.889-10.093,4.062
	c-0.571,1.27-0.381,2.539,0.444,3.491c0.571,0.762,1.777,1.27,3.682,1.27c2.92,0,4.38-1.27,5.459-2.158l0,0l-0.508,1.777h5.332
	l3.174-8.696C19.247,1.965,16.391,0.188,12.772,0.188z M7.567,11.105c-1.143,0-1.841-0.762-1.587-1.714
	c0.317-1.143,1.65-2.158,5.586-1.968C10.995,9.328,10.106,11.105,7.567,11.105z"/>
<polygon id="Schatten_1_" fill="#C6C6C6" points="75.233,5.837 59.237,5.837 65.077,-10.096 46.161,-10.096 40.385,5.837 
	49.97,5.837 44.13,21.833 34.545,21.833 28.769,37.702 47.685,37.702 53.397,21.833 69.394,21.833 "/>
<polygon id="Symbol_1_" fill="#FF0000" points="70.917,-0.892 55.048,-0.892 60.888,-16.824 41.908,-16.824 36.132,-0.892 
	52.128,-0.892 46.288,15.041 30.292,15.041 24.516,30.974 43.368,30.974 49.208,15.041 65.204,15.041 "/>
</svg>
